<svg xmlns="http://www.w3.org/2000/svg" viewBox="0 0 613.61 223.04"><defs><style>.cls-1{fill:#e30613;fill-rule:evenodd;}</style></defs><g id="Layer_2" data-name="Layer 2"><g id="Foreground"><path class="cls-1" d="M176.2,222.66,171,215.4a12.12,12.12,0,0,0-2.21-2.63v-.06c3.34-.19,5.9-2,5.9-5.49s-2.59-5.59-7-5.59H162v21h2.46V213h.35c1.42,0,1.8.26,4.26,3.73l4.23,6Zm-4-15.38c0,2.34-1.43,3.66-4.55,3.66h-3.16v-7.23h3C170.64,203.71,172.16,204.94,172.16,207.28Z"/><polygon class="cls-1" points="203.28 222.66 203.28 220.57 194.72 220.57 194.72 212.55 202.05 212.55 202.05 210.47 194.72 210.47 194.72 203.71 203.06 203.71 203.06 201.63 192.26 201.63 192.26 222.66 203.28 222.66"/><path class="cls-1" d="M231.62,217.38c0-4.1-3.22-5.52-6-6.85-2.08-1-3.79-1.95-3.79-4,0-1.92,1.58-3.19,3.66-3.19a6.94,6.94,0,0,1,4.36,1.45l1.2-1.83a8.69,8.69,0,0,0-5.52-1.67c-3.22,0-6.13,1.93-6.13,5.37s2.34,4.7,4.89,6,4.84,2.27,4.84,4.83c0,1.86-1.71,3.56-4.3,3.56a6.72,6.72,0,0,1-4.8-1.86l-1.26,1.77a8.62,8.62,0,0,0,6,2.15C228.81,223,231.62,220.7,231.62,217.38Z"/><polygon class="cls-1" points="260.47 203.71 260.47 201.63 246.04 201.63 246.04 203.71 252.01 203.71 252.01 222.66 254.5 222.66 254.5 203.71 260.47 203.71"/><path class="cls-1" d="M278.39,217.45H288l1.92,5.21h2.69l-8.08-21h-2.4l-8.06,21h2.44Zm8.78-2.09h-8l2.68-7.2c.6-1.61.95-2.58,1.3-3.63h.06l1.3,3.63Z"/><path class="cls-1" d="M324.39,214.67v-13h-2.31v13.29c0,3.54-1.8,6-5.59,6-3.95,0-5.75-2.08-5.75-6.44V201.63h-2.46V214.8c0,4.92,2.4,8.24,8.15,8.24C321.89,223,324.39,219.82,324.39,214.67Z"/><path class="cls-1" d="M356.74,222.66l-5.21-7.26a12.12,12.12,0,0,0-2.21-2.63v-.06c3.35-.19,5.9-2,5.9-5.49s-2.59-5.59-7-5.59h-5.71v21H345V213h.35c1.42,0,1.8.26,4.26,3.73l4.23,6Zm-4-15.38c0,2.34-1.42,3.66-4.55,3.66H345v-7.23h3C351.18,203.71,352.7,204.94,352.7,207.28Z"/><path class="cls-1" d="M374.79,217.45h9.57l1.92,5.21H389l-8.09-21h-2.4l-8.05,21h2.43Zm8.78-2.09h-8l2.68-7.2c.6-1.61.95-2.58,1.3-3.63h.06l1.29,3.63Z"/><path class="cls-1" d="M421.32,222.66v-21H419v14.49c0,1.55.1,2.43.13,2.84h-.06c-.38-.63-1-1.67-2-3.09l-9.91-14.24H404.8v21h2.28V207.25c0-1-.1-1.9-.13-2.31H407a29.61,29.61,0,0,0,1.65,2.72l10.38,15Z"/><polygon class="cls-1" points="451.62 203.71 451.62 201.63 437.19 201.63 437.19 203.71 443.16 203.71 443.16 222.66 445.65 222.66 445.65 203.71 451.62 203.71"/><path class="cls-1" d="M613.61,0l-1.78,48.08c-57.28,37.55-46.5,95.1-47.39,111.76C564.44,159.84,550.31,58.15,613.61,0Z"/><path class="cls-1" d="M608.16,82.93l1.18,36.94c-33.07-.59-44.92,37.44-44.9,40C564.44,159.84,563.74,101.2,608.16,82.93Z"/><path class="cls-1" d="M508.6,124.26q6,.3,6.44.3,20.07,0,29.67-13a20.78,20.78,0,0,0,4.19-12.59,12.61,12.61,0,0,0-3.15-8.84,10.33,10.33,0,0,0-8.39-3.59q-6.74,0-12.88,6.29Q513.69,103.74,508.6,124.26Zm37.6,13.18,1.95,1.05q-6.43,9.15-12,13a29.15,29.15,0,0,1-16.78,4.79q-11.4,0-17.68-7T495.57,131a51.55,51.55,0,0,1,7.79-26.81,45.66,45.66,0,0,1,13.18-14.38,31.13,31.13,0,0,1,18.28-6.15,18.91,18.91,0,0,1,13,4.65,15,15,0,0,1,5.25,12A23.12,23.12,0,0,1,547,115.87,28,28,0,0,1,532.27,125a61.44,61.44,0,0,1-14.68,1.8q-.9,0-9.29-.3a59,59,0,0,0-.45,7q0,8.08,3.3,13.48a12.44,12.44,0,0,0,11.38,6.59q10.34,0,18-8.83Q543.81,140.89,546.2,137.44ZM423.8,109.28l-2.09-.6q2.85-8.54,4-11.39a31.73,31.73,0,0,1,6.44-10,12.86,12.86,0,0,1,9.44-3.9q3.9,0,9.44,2.7,12.44,6,18.13,6,8.39,0,16.18-8.84l1.95,1.5-60.68,63.07a29.4,29.4,0,0,1,12.44-3,32.77,32.77,0,0,1,9.43,1.49,53.3,53.3,0,0,1,7.35,3.15,72.43,72.43,0,0,0,7.34,3.45,21,21,0,0,0,6.89,1.64,11.21,11.21,0,0,0,9.59-5.09A17.55,17.55,0,0,0,483,138.79q0-4.93-3.59-12.28l1.79-1.2q3.9,8.69,3.9,13.93a22.51,22.51,0,0,1-3.3,11.69,22.83,22.83,0,0,1-19.47,11.53q-7.8,0-16.93-6.29-9-6.13-15-6.14-6.6,0-12,6.14l-1.8-1.8L473.39,95.5q-8.08,3.6-13.63,3.59-6.58,0-14.53-3.74c-3.8-1.8-6.69-2.7-8.69-2.7q-5.55,0-8.84,5.84A51.26,51.26,0,0,0,423.8,109.28ZM394.44,89.65l4.2-20.07h11.53l-4,20.07h13.48l-.6,2.7H405.53l-9.89,47.19a26.25,26.25,0,0,0-.6,5.4q0,6.88,5.1,6.89,4,0,6.89-6.14a91.6,91.6,0,0,0,3.29-9.74l2.25.45q-2.85,9.73-4.95,13a12.37,12.37,0,0,1-11.23,6.44,12.16,12.16,0,0,1-9.14-3.74,13.76,13.76,0,0,1-3.45-9.44,31.81,31.81,0,0,1,.75-6.44l9.29-43.9H383.36l.44-2.7ZM358.36,67.18a7.67,7.67,0,0,1,7.79-7.79,7,7,0,0,1,5.39,2.24,7.54,7.54,0,0,1,2.25,5.55,7.68,7.68,0,0,1-7.64,7.64,7.79,7.79,0,0,1-5.54-2.1A7.53,7.53,0,0,1,358.36,67.18ZM342.61,87.56l26.21-3.9q-5.08,24-8.83,37.46-5.55,19.77-5.55,24.41,0,6.6,4.8,6.6,6,0,10.63-16.18l2.25.6q-3,9.44-5.24,12.88-4.2,6.45-11.24,6.44-5.83,0-9.14-3.59a13.82,13.82,0,0,1-3.14-9.44q0-5.25,3.74-19,8.08-29.81,9.44-36.25l-13.48,2.25Zm-91.84-.15,26.37-4-8.24,40q9.44-23.07,18.43-31.76,8.24-8.09,18.27-8.09,11.4,0,16.18,7.49a16.05,16.05,0,0,1,2.4,8.84,64.09,64.09,0,0,1-1.05,7.79l-7.64,28.47A38.31,38.31,0,0,0,314,146a7,7,0,0,0,1.2,4.19,4.33,4.33,0,0,0,3.75,1.65q5.83,0,10.63-16l2.1.45q-2.39,9.13-6.14,14.38a11.75,11.75,0,0,1-10.19,5.09q-5.83,0-9.14-3.59a13.47,13.47,0,0,1-3.29-9.44,37,37,0,0,1,1.35-9.44l6.89-26.07a38.13,38.13,0,0,0,1.5-9.28q0-11.25-10.64-11.24-10,0-20.08,15.43-9,13.78-15.73,37.45-1.95,7.2-3.74,14.23H250.77l13.78-66.21-13.33,2.09Zm-79.1-40,25.92-3.6L180.66,124q7.64-18,13-25.77,10.2-14.67,22.78-14.68,7.93,0,12.58,4.35,4.8,4.33,4.79,12.13a32,32,0,0,1-1.19,7.49q-.15,1.2-5.85,22.62-3,11.39-3,15.28,0,6.45,4.79,6.45,4.2,0,7.19-6.14a95.59,95.59,0,0,0,3.6-9.89l2.25.45q-3.15,9.44-5.25,12.88-4.19,6.45-11.23,6.44A12.08,12.08,0,0,1,216,152a13.43,13.43,0,0,1-3.3-9.44q0-6.6,4.94-22.77,5-16.33,5-22A12,12,0,0,0,220.06,90a8.74,8.74,0,0,0-7.19-3.14q-8.53,0-17.53,12.73-8.84,12.74-15.43,34.46-2.1,6.74-5.39,19.77H162.83L185.16,47.86l-13.49,1.79ZM152.35,137l2.09,1.2q-11.53,18.28-28.76,18.28-11.09,0-17.53-7.19T101.71,131q0-12.59,7-25.47,12-22,32.81-22,7.49,0,12.44,3.6a13.4,13.4,0,0,1,5.69,11.38,11.12,11.12,0,0,1-2.4,7.19,7.81,7.81,0,0,1-6.44,3,8.13,8.13,0,0,1-5.54-2.1,7.34,7.34,0,0,1-2.25-5.39,6.7,6.7,0,0,1,2.25-5.09,7.16,7.16,0,0,1,5.24-2.25A6.89,6.89,0,0,1,156.39,97q.3.6.9,2.1v-1.5a10.24,10.24,0,0,0-3.9-8.39,14.12,14.12,0,0,0-9.13-3.14q-12,0-21.43,16.48-9,15.74-9,30.26,0,8.38,3.15,13.78a12.66,12.66,0,0,0,11.69,6.75Q141.55,153.33,152.35,137ZM90.14,57.53l1.52-7.59a41.3,41.3,0,0,0,1-8q0-12.15-11.2-18.41a26.05,26.05,0,0,0-13.09-3q-9.3,0-15,4-9.67,6.65-9.68,19.17,0,11,10.82,22.58Q62.63,75,70.6,82.77q18,17.46,18,34.73a34.91,34.91,0,0,1-6.46,20.31,48.36,48.36,0,0,1-16.51,14.61q-11.19,6.08-25.81,6.07Q15,158.49,4.56,141A30.81,30.81,0,0,1,0,125.28q0-14.61,11-22.2a19.56,19.56,0,0,1,11.57-3.61,15.18,15.18,0,0,1,10.63,4,12.24,12.24,0,0,1,4.56,9.87,11.9,11.9,0,0,1-3,8.16,9.41,9.41,0,0,1-7.4,3.22,10.07,10.07,0,0,1-7.4-3,10.42,10.42,0,0,1-2.85-7.4,9.44,9.44,0,0,1,2.66-6.65,8.84,8.84,0,0,1,6.64-3,11.33,11.33,0,0,1,3.61.58,11.69,11.69,0,0,0-7.22-2.28,16.74,16.74,0,0,0-13.85,6.83,23.91,23.91,0,0,0-5.31,15.37q0,16.51,15.56,25.43,7.59,4.36,19.35,4.36,22,0,30.37-17.26A34.06,34.06,0,0,0,72.49,123,29.05,29.05,0,0,0,70,110.67a45.3,45.3,0,0,0-7-10.82q-.95-1.14-15.18-15.18A109,109,0,0,1,34,68a32.27,32.27,0,0,1-4.74-17.46q0-18.8,18-28.47a39.71,39.71,0,0,1,19-4.55q14.61,0,30.37,9.49l1.51-6.45h3.23l-7.78,37Z"/></g></g></svg>